<mxfile host="app.diagrams.net" modified="2023-10-26T12:49:41.287Z" agent="Mozilla/5.0 (Macintosh; Intel Mac OS X 10_15_7) AppleWebKit/537.36 (KHTML, like Gecko) Chrome/118.0.0.0 Safari/537.36" etag="gO1UVj8gF44OKw71yPJt" version="22.0.8" type="github">
  <diagram name="第 1 页" id="1m5Y_Z9FJWOdwL9VR-13">
    <mxGraphModel dx="1146" dy="765" grid="1" gridSize="10" guides="1" tooltips="1" connect="1" arrows="1" fold="1" page="1" pageScale="1" pageWidth="827" pageHeight="1169" math="0" shadow="0">
      <root>
        <mxCell id="0" />
        <mxCell id="1" parent="0" />
        <mxCell id="4DX10pmx3WDytaZPGjQy-30" value="" style="rounded=1;whiteSpace=wrap;html=1;sketch=1;curveFitting=1;jiggle=2;strokeWidth=2;fillColor=none;" vertex="1" parent="1">
          <mxGeometry x="130" y="480" width="317" height="270" as="geometry" />
        </mxCell>
        <mxCell id="4DX10pmx3WDytaZPGjQy-62" value="" style="rounded=1;whiteSpace=wrap;html=1;sketch=1;hachureGap=4;jiggle=2;curveFitting=1;fontFamily=Architects Daughter;fontSource=https%3A%2F%2Ffonts.googleapis.com%2Fcss%3Ffamily%3DArchitects%2BDaughter;fontSize=20;fillColor=#cdeb8b;strokeColor=#36393d;" vertex="1" parent="1">
          <mxGeometry x="150" y="650" width="278.5" height="90" as="geometry" />
        </mxCell>
        <mxCell id="4DX10pmx3WDytaZPGjQy-57" value="" style="rounded=1;whiteSpace=wrap;html=1;sketch=1;hachureGap=4;jiggle=2;curveFitting=1;fontFamily=Architects Daughter;fontSource=https%3A%2F%2Ffonts.googleapis.com%2Fcss%3Ffamily%3DArchitects%2BDaughter;fontSize=20;fillColor=none;" vertex="1" parent="1">
          <mxGeometry x="150" y="486" width="280" height="144" as="geometry" />
        </mxCell>
        <mxCell id="4DX10pmx3WDytaZPGjQy-1" value="" style="rounded=1;whiteSpace=wrap;html=1;sketch=1;curveFitting=1;jiggle=2;strokeWidth=2;" vertex="1" parent="1">
          <mxGeometry x="190" y="160" width="250" height="160" as="geometry" />
        </mxCell>
        <mxCell id="4DX10pmx3WDytaZPGjQy-18" style="edgeStyle=orthogonalEdgeStyle;rounded=0;orthogonalLoop=1;jettySize=auto;html=1;exitX=0.75;exitY=0;exitDx=0;exitDy=0;entryX=0.75;entryY=1;entryDx=0;entryDy=0;fillColor=#e51400;strokeColor=#B20000;sketch=1;curveFitting=1;jiggle=2;" edge="1" parent="1" source="4DX10pmx3WDytaZPGjQy-2" target="4DX10pmx3WDytaZPGjQy-5">
          <mxGeometry relative="1" as="geometry" />
        </mxCell>
        <mxCell id="4DX10pmx3WDytaZPGjQy-2" value="&lt;font style=&quot;font-size: 14px;&quot;&gt;&lt;b&gt;rpc-client.jar&lt;/b&gt;&lt;/font&gt;" style="rounded=1;whiteSpace=wrap;html=1;fillColor=#d5e8d4;strokeColor=#82b366;sketch=1;curveFitting=1;jiggle=2;strokeWidth=2;fontFamily=Comic Sans MS;" vertex="1" parent="1">
          <mxGeometry x="310" y="260" width="104" height="40" as="geometry" />
        </mxCell>
        <mxCell id="4DX10pmx3WDytaZPGjQy-4" value="&lt;font style=&quot;font-size: 14px;&quot;&gt;&lt;b&gt;guava.jar&lt;/b&gt;&lt;/font&gt;" style="ellipse;whiteSpace=wrap;html=1;fillColor=#ffe6cc;strokeColor=#d79b00;sketch=1;curveFitting=1;jiggle=2;strokeWidth=2;fontFamily=Comic Sans MS;" vertex="1" parent="1">
          <mxGeometry x="200" y="220" width="80" height="40" as="geometry" />
        </mxCell>
        <mxCell id="4DX10pmx3WDytaZPGjQy-6" style="edgeStyle=orthogonalEdgeStyle;rounded=0;orthogonalLoop=1;jettySize=auto;html=1;exitX=0.25;exitY=1;exitDx=0;exitDy=0;entryX=0.25;entryY=0;entryDx=0;entryDy=0;fillColor=#e51400;strokeColor=#B20000;sketch=1;curveFitting=1;jiggle=2;" edge="1" parent="1" source="4DX10pmx3WDytaZPGjQy-5" target="4DX10pmx3WDytaZPGjQy-2">
          <mxGeometry relative="1" as="geometry" />
        </mxCell>
        <mxCell id="4DX10pmx3WDytaZPGjQy-5" value="&lt;font face=&quot;Comic Sans MS&quot; style=&quot;font-size: 14px;&quot;&gt;&lt;b&gt;client&lt;/b&gt;&lt;/font&gt;" style="rounded=1;whiteSpace=wrap;html=1;fillColor=#dae8fc;strokeColor=#6c8ebf;sketch=1;curveFitting=1;jiggle=2;strokeWidth=2;" vertex="1" parent="1">
          <mxGeometry x="310" y="180" width="104" height="40" as="geometry" />
        </mxCell>
        <mxCell id="4DX10pmx3WDytaZPGjQy-7" value="&lt;font face=&quot;Comic Sans MS&quot; style=&quot;font-size: 18px;&quot;&gt;调用方&lt;/font&gt;" style="text;html=1;align=center;verticalAlign=middle;resizable=0;points=[];autosize=1;strokeColor=none;fillColor=none;sketch=1;curveFitting=1;jiggle=2;" vertex="1" parent="1">
          <mxGeometry x="275" y="330" width="80" height="40" as="geometry" />
        </mxCell>
        <mxCell id="4DX10pmx3WDytaZPGjQy-9" value="" style="rounded=1;whiteSpace=wrap;html=1;sketch=1;curveFitting=1;jiggle=2;strokeWidth=2;" vertex="1" parent="1">
          <mxGeometry x="570" y="160" width="250" height="160" as="geometry" />
        </mxCell>
        <mxCell id="4DX10pmx3WDytaZPGjQy-16" style="edgeStyle=orthogonalEdgeStyle;rounded=0;orthogonalLoop=1;jettySize=auto;html=1;exitX=0.75;exitY=0;exitDx=0;exitDy=0;entryX=0.75;entryY=1;entryDx=0;entryDy=0;fillColor=#e51400;strokeColor=#B20000;sketch=1;curveFitting=1;jiggle=2;" edge="1" parent="1" source="4DX10pmx3WDytaZPGjQy-10" target="4DX10pmx3WDytaZPGjQy-13">
          <mxGeometry relative="1" as="geometry" />
        </mxCell>
        <mxCell id="4DX10pmx3WDytaZPGjQy-17" style="edgeStyle=orthogonalEdgeStyle;rounded=0;orthogonalLoop=1;jettySize=auto;html=1;exitX=0;exitY=0.25;exitDx=0;exitDy=0;entryX=1;entryY=0.25;entryDx=0;entryDy=0;fillColor=#e51400;strokeColor=#B20000;sketch=1;curveFitting=1;jiggle=2;" edge="1" parent="1" source="4DX10pmx3WDytaZPGjQy-10" target="4DX10pmx3WDytaZPGjQy-2">
          <mxGeometry relative="1" as="geometry" />
        </mxCell>
        <mxCell id="4DX10pmx3WDytaZPGjQy-10" value="&lt;font face=&quot;Comic Sans MS&quot; style=&quot;font-size: 14px;&quot;&gt;&lt;b&gt;rpc-server.jar&lt;/b&gt;&lt;/font&gt;" style="rounded=1;whiteSpace=wrap;html=1;fillColor=#d5e8d4;strokeColor=#82b366;sketch=1;curveFitting=1;jiggle=2;strokeWidth=2;" vertex="1" parent="1">
          <mxGeometry x="590" y="260" width="110" height="40" as="geometry" />
        </mxCell>
        <mxCell id="4DX10pmx3WDytaZPGjQy-11" value="&lt;font style=&quot;font-size: 14px;&quot;&gt;&lt;b&gt;guava.jar&lt;/b&gt;&lt;/font&gt;" style="ellipse;whiteSpace=wrap;html=1;fillColor=#ffe6cc;strokeColor=#d79b00;sketch=1;curveFitting=1;jiggle=2;strokeWidth=2;" vertex="1" parent="1">
          <mxGeometry x="730" y="220" width="80" height="40" as="geometry" />
        </mxCell>
        <mxCell id="4DX10pmx3WDytaZPGjQy-12" style="edgeStyle=orthogonalEdgeStyle;rounded=0;orthogonalLoop=1;jettySize=auto;html=1;exitX=0.25;exitY=1;exitDx=0;exitDy=0;entryX=0.25;entryY=0;entryDx=0;entryDy=0;fillColor=#e51400;strokeColor=#B20000;sketch=1;curveFitting=1;jiggle=2;" edge="1" parent="1" source="4DX10pmx3WDytaZPGjQy-13" target="4DX10pmx3WDytaZPGjQy-10">
          <mxGeometry relative="1" as="geometry" />
        </mxCell>
        <mxCell id="4DX10pmx3WDytaZPGjQy-13" value="&lt;font face=&quot;Comic Sans MS&quot; style=&quot;font-size: 14px;&quot;&gt;&lt;b&gt;server&lt;/b&gt;&lt;/font&gt;" style="rounded=1;whiteSpace=wrap;html=1;fillColor=#dae8fc;strokeColor=#6c8ebf;sketch=1;curveFitting=1;jiggle=2;strokeWidth=2;" vertex="1" parent="1">
          <mxGeometry x="590" y="180" width="110" height="40" as="geometry" />
        </mxCell>
        <mxCell id="4DX10pmx3WDytaZPGjQy-14" value="&lt;font style=&quot;font-size: 18px;&quot;&gt;服务方&lt;/font&gt;" style="text;html=1;align=center;verticalAlign=middle;resizable=0;points=[];autosize=1;strokeColor=none;fillColor=none;sketch=1;curveFitting=1;jiggle=2;" vertex="1" parent="1">
          <mxGeometry x="655" y="330" width="80" height="40" as="geometry" />
        </mxCell>
        <mxCell id="4DX10pmx3WDytaZPGjQy-15" style="edgeStyle=orthogonalEdgeStyle;rounded=0;orthogonalLoop=1;jettySize=auto;html=1;exitX=1;exitY=0.75;exitDx=0;exitDy=0;entryX=0;entryY=0.75;entryDx=0;entryDy=0;fillColor=#e51400;strokeColor=#B20000;sketch=1;curveFitting=1;jiggle=2;" edge="1" parent="1" source="4DX10pmx3WDytaZPGjQy-2" target="4DX10pmx3WDytaZPGjQy-10">
          <mxGeometry relative="1" as="geometry" />
        </mxCell>
        <mxCell id="4DX10pmx3WDytaZPGjQy-20" value="" style="endArrow=classic;html=1;rounded=0;exitX=0;exitY=0.5;exitDx=0;exitDy=0;entryX=1;entryY=0;entryDx=0;entryDy=0;dashed=1;sketch=1;curveFitting=1;jiggle=2;strokeWidth=2;" edge="1" parent="1" source="4DX10pmx3WDytaZPGjQy-5" target="4DX10pmx3WDytaZPGjQy-4">
          <mxGeometry width="50" height="50" relative="1" as="geometry">
            <mxPoint x="370" y="450" as="sourcePoint" />
            <mxPoint x="420" y="400" as="targetPoint" />
          </mxGeometry>
        </mxCell>
        <mxCell id="4DX10pmx3WDytaZPGjQy-21" value="" style="endArrow=classic;html=1;rounded=0;exitX=0;exitY=0.5;exitDx=0;exitDy=0;dashed=1;entryX=1;entryY=1;entryDx=0;entryDy=0;sketch=1;curveFitting=1;jiggle=2;strokeWidth=2;" edge="1" parent="1" source="4DX10pmx3WDytaZPGjQy-2" target="4DX10pmx3WDytaZPGjQy-4">
          <mxGeometry width="50" height="50" relative="1" as="geometry">
            <mxPoint x="324" y="210" as="sourcePoint" />
            <mxPoint x="260" y="370" as="targetPoint" />
          </mxGeometry>
        </mxCell>
        <mxCell id="4DX10pmx3WDytaZPGjQy-22" value="" style="endArrow=classic;html=1;rounded=0;dashed=1;exitX=1;exitY=0.5;exitDx=0;exitDy=0;entryX=0;entryY=0;entryDx=0;entryDy=0;sketch=1;curveFitting=1;jiggle=2;strokeWidth=2;" edge="1" parent="1" source="4DX10pmx3WDytaZPGjQy-13" target="4DX10pmx3WDytaZPGjQy-11">
          <mxGeometry width="50" height="50" relative="1" as="geometry">
            <mxPoint x="740" y="400" as="sourcePoint" />
            <mxPoint x="760" y="470" as="targetPoint" />
          </mxGeometry>
        </mxCell>
        <mxCell id="4DX10pmx3WDytaZPGjQy-23" value="" style="endArrow=classic;html=1;rounded=0;dashed=1;exitX=1;exitY=0.5;exitDx=0;exitDy=0;entryX=0;entryY=1;entryDx=0;entryDy=0;sketch=1;curveFitting=1;jiggle=2;strokeWidth=2;" edge="1" parent="1" source="4DX10pmx3WDytaZPGjQy-10" target="4DX10pmx3WDytaZPGjQy-11">
          <mxGeometry width="50" height="50" relative="1" as="geometry">
            <mxPoint x="700" y="210" as="sourcePoint" />
            <mxPoint x="752" y="236" as="targetPoint" />
          </mxGeometry>
        </mxCell>
        <mxCell id="4DX10pmx3WDytaZPGjQy-31" style="edgeStyle=orthogonalEdgeStyle;rounded=0;orthogonalLoop=1;jettySize=auto;html=1;exitX=0.75;exitY=0;exitDx=0;exitDy=0;entryX=0.75;entryY=1;entryDx=0;entryDy=0;fillColor=#e51400;strokeColor=#B20000;sketch=1;curveFitting=1;jiggle=2;strokeWidth=2;" edge="1" parent="1" source="4DX10pmx3WDytaZPGjQy-32" target="4DX10pmx3WDytaZPGjQy-36">
          <mxGeometry relative="1" as="geometry" />
        </mxCell>
        <mxCell id="4DX10pmx3WDytaZPGjQy-64" style="edgeStyle=orthogonalEdgeStyle;rounded=0;sketch=1;hachureGap=4;jiggle=2;curveFitting=1;orthogonalLoop=1;jettySize=auto;html=1;exitX=0.25;exitY=1;exitDx=0;exitDy=0;entryX=0.25;entryY=0;entryDx=0;entryDy=0;fontFamily=Architects Daughter;fontSource=https%3A%2F%2Ffonts.googleapis.com%2Fcss%3Ffamily%3DArchitects%2BDaughter;fontSize=16;fillColor=#e51400;strokeColor=#B20000;strokeWidth=2;" edge="1" parent="1" source="4DX10pmx3WDytaZPGjQy-32" target="4DX10pmx3WDytaZPGjQy-56">
          <mxGeometry relative="1" as="geometry" />
        </mxCell>
        <mxCell id="4DX10pmx3WDytaZPGjQy-32" value="&lt;font style=&quot;font-size: 14px;&quot;&gt;&lt;b&gt;rpc-client-api.jar&lt;/b&gt;&lt;/font&gt;" style="rounded=1;whiteSpace=wrap;html=1;fillColor=#d5e8d4;strokeColor=#82b366;sketch=1;curveFitting=1;jiggle=2;strokeWidth=2;fontFamily=Comic Sans MS;" vertex="1" parent="1">
          <mxGeometry x="270" y="580" width="151" height="40" as="geometry" />
        </mxCell>
        <mxCell id="4DX10pmx3WDytaZPGjQy-33" value="&lt;font style=&quot;font-size: 14px;&quot;&gt;&lt;b&gt;guava.jar&lt;/b&gt;&lt;/font&gt;" style="ellipse;whiteSpace=wrap;html=1;fillColor=#ffe6cc;strokeColor=#d79b00;sketch=1;curveFitting=1;jiggle=2;strokeWidth=2;fontFamily=Comic Sans MS;" vertex="1" parent="1">
          <mxGeometry x="160" y="545" width="80" height="40" as="geometry" />
        </mxCell>
        <mxCell id="4DX10pmx3WDytaZPGjQy-34" style="edgeStyle=orthogonalEdgeStyle;rounded=0;orthogonalLoop=1;jettySize=auto;html=1;exitX=0.25;exitY=1;exitDx=0;exitDy=0;entryX=0.25;entryY=0;entryDx=0;entryDy=0;fillColor=#e51400;strokeColor=#B20000;sketch=1;curveFitting=1;jiggle=2;" edge="1" parent="1" source="4DX10pmx3WDytaZPGjQy-36" target="4DX10pmx3WDytaZPGjQy-32">
          <mxGeometry relative="1" as="geometry" />
        </mxCell>
        <mxCell id="4DX10pmx3WDytaZPGjQy-36" value="&lt;font face=&quot;Comic Sans MS&quot; style=&quot;font-size: 14px;&quot;&gt;&lt;b&gt;client&lt;/b&gt;&lt;/font&gt;" style="rounded=1;whiteSpace=wrap;html=1;fillColor=#dae8fc;strokeColor=#6c8ebf;sketch=1;curveFitting=1;jiggle=2;strokeWidth=2;" vertex="1" parent="1">
          <mxGeometry x="270" y="500" width="151" height="40" as="geometry" />
        </mxCell>
        <mxCell id="4DX10pmx3WDytaZPGjQy-37" value="&lt;font face=&quot;Comic Sans MS&quot; style=&quot;font-size: 18px;&quot;&gt;调用方&lt;/font&gt;" style="text;html=1;align=center;verticalAlign=middle;resizable=0;points=[];autosize=1;strokeColor=none;fillColor=none;sketch=1;curveFitting=1;jiggle=2;" vertex="1" parent="1">
          <mxGeometry x="248.5" y="760" width="80" height="40" as="geometry" />
        </mxCell>
        <mxCell id="4DX10pmx3WDytaZPGjQy-48" value="" style="endArrow=classic;html=1;rounded=0;exitX=0;exitY=0.5;exitDx=0;exitDy=0;entryX=1;entryY=0;entryDx=0;entryDy=0;dashed=1;sketch=1;curveFitting=1;jiggle=2;strokeWidth=2;" edge="1" parent="1" source="4DX10pmx3WDytaZPGjQy-36" target="4DX10pmx3WDytaZPGjQy-33">
          <mxGeometry width="50" height="50" relative="1" as="geometry">
            <mxPoint x="377" y="770" as="sourcePoint" />
            <mxPoint x="427" y="720" as="targetPoint" />
          </mxGeometry>
        </mxCell>
        <mxCell id="4DX10pmx3WDytaZPGjQy-60" style="edgeStyle=orthogonalEdgeStyle;rounded=0;sketch=1;hachureGap=4;jiggle=2;curveFitting=1;orthogonalLoop=1;jettySize=auto;html=1;exitX=0;exitY=0.5;exitDx=0;exitDy=0;entryX=1;entryY=0.5;entryDx=0;entryDy=0;fontFamily=Architects Daughter;fontSource=https%3A%2F%2Ffonts.googleapis.com%2Fcss%3Ffamily%3DArchitects%2BDaughter;fontSize=16;dashed=1;strokeWidth=2;" edge="1" parent="1" source="4DX10pmx3WDytaZPGjQy-56" target="4DX10pmx3WDytaZPGjQy-59">
          <mxGeometry relative="1" as="geometry" />
        </mxCell>
        <mxCell id="4DX10pmx3WDytaZPGjQy-95" style="edgeStyle=orthogonalEdgeStyle;rounded=0;sketch=1;hachureGap=4;jiggle=2;curveFitting=1;orthogonalLoop=1;jettySize=auto;html=1;exitX=1;exitY=0.75;exitDx=0;exitDy=0;fontFamily=Architects Daughter;fontSource=https%3A%2F%2Ffonts.googleapis.com%2Fcss%3Ffamily%3DArchitects%2BDaughter;fontSize=16;fillColor=#e51400;strokeColor=#B20000;strokeWidth=2;entryX=0;entryY=0.75;entryDx=0;entryDy=0;" edge="1" parent="1" source="4DX10pmx3WDytaZPGjQy-56" target="4DX10pmx3WDytaZPGjQy-89">
          <mxGeometry relative="1" as="geometry" />
        </mxCell>
        <mxCell id="4DX10pmx3WDytaZPGjQy-99" style="edgeStyle=orthogonalEdgeStyle;rounded=0;sketch=1;hachureGap=4;jiggle=2;curveFitting=1;orthogonalLoop=1;jettySize=auto;html=1;exitX=0.75;exitY=0;exitDx=0;exitDy=0;entryX=0.75;entryY=1;entryDx=0;entryDy=0;fontFamily=Architects Daughter;fontSource=https%3A%2F%2Ffonts.googleapis.com%2Fcss%3Ffamily%3DArchitects%2BDaughter;fontSize=16;fillColor=#e51400;strokeColor=#B20000;strokeWidth=2;" edge="1" parent="1" source="4DX10pmx3WDytaZPGjQy-56" target="4DX10pmx3WDytaZPGjQy-32">
          <mxGeometry relative="1" as="geometry" />
        </mxCell>
        <mxCell id="4DX10pmx3WDytaZPGjQy-56" value="&lt;font style=&quot;font-size: 14px;&quot;&gt;&lt;b&gt;rpc-client-agent.jar&lt;/b&gt;&lt;/font&gt;" style="rounded=1;whiteSpace=wrap;html=1;fillColor=#d5e8d4;strokeColor=#82b366;sketch=1;curveFitting=1;jiggle=2;strokeWidth=2;fontFamily=Comic Sans MS;" vertex="1" parent="1">
          <mxGeometry x="270" y="670" width="151" height="40" as="geometry" />
        </mxCell>
        <mxCell id="4DX10pmx3WDytaZPGjQy-59" value="&lt;font style=&quot;font-size: 14px;&quot;&gt;&lt;b&gt;guava.jar&lt;/b&gt;&lt;/font&gt;" style="ellipse;whiteSpace=wrap;html=1;fillColor=#ffe6cc;strokeColor=#d79b00;sketch=1;curveFitting=1;jiggle=2;strokeWidth=2;fontFamily=Comic Sans MS;" vertex="1" parent="1">
          <mxGeometry x="160" y="670" width="80" height="40" as="geometry" />
        </mxCell>
        <mxCell id="4DX10pmx3WDytaZPGjQy-66" value="2" style="text;html=1;align=center;verticalAlign=middle;resizable=0;points=[];autosize=1;strokeColor=none;fillColor=none;fontSize=20;fontFamily=Architects Daughter;strokeWidth=2;" vertex="1" parent="1">
          <mxGeometry x="280" y="620" width="30" height="40" as="geometry" />
        </mxCell>
        <mxCell id="4DX10pmx3WDytaZPGjQy-67" value="1" style="text;html=1;align=center;verticalAlign=middle;resizable=0;points=[];autosize=1;strokeColor=none;fillColor=none;fontSize=20;fontFamily=Architects Daughter;" vertex="1" parent="1">
          <mxGeometry x="310" y="220" width="30" height="40" as="geometry" />
        </mxCell>
        <mxCell id="4DX10pmx3WDytaZPGjQy-68" value="2" style="text;html=1;align=center;verticalAlign=middle;resizable=0;points=[];autosize=1;strokeColor=none;fillColor=none;fontSize=20;fontFamily=Architects Daughter;" vertex="1" parent="1">
          <mxGeometry x="490" y="282" width="30" height="40" as="geometry" />
        </mxCell>
        <mxCell id="4DX10pmx3WDytaZPGjQy-69" value="6" style="text;html=1;align=center;verticalAlign=middle;resizable=0;points=[];autosize=1;strokeColor=none;fillColor=none;fontSize=20;fontFamily=Architects Daughter;" vertex="1" parent="1">
          <mxGeometry x="381" y="220" width="40" height="40" as="geometry" />
        </mxCell>
        <mxCell id="4DX10pmx3WDytaZPGjQy-70" value="5" style="text;html=1;align=center;verticalAlign=middle;resizable=0;points=[];autosize=1;strokeColor=none;fillColor=none;fontSize=20;fontFamily=Architects Daughter;" vertex="1" parent="1">
          <mxGeometry x="485" y="240" width="40" height="40" as="geometry" />
        </mxCell>
        <mxCell id="4DX10pmx3WDytaZPGjQy-71" value="4" style="text;html=1;align=center;verticalAlign=middle;resizable=0;points=[];autosize=1;strokeColor=none;fillColor=none;fontSize=20;fontFamily=Architects Daughter;" vertex="1" parent="1">
          <mxGeometry x="582" y="220" width="40" height="40" as="geometry" />
        </mxCell>
        <mxCell id="4DX10pmx3WDytaZPGjQy-72" value="3" style="text;html=1;align=center;verticalAlign=middle;resizable=0;points=[];autosize=1;strokeColor=none;fillColor=none;fontSize=20;fontFamily=Architects Daughter;" vertex="1" parent="1">
          <mxGeometry x="670" y="220" width="30" height="40" as="geometry" />
        </mxCell>
        <mxCell id="4DX10pmx3WDytaZPGjQy-74" value="Java Agent" style="text;html=1;align=center;verticalAlign=middle;resizable=0;points=[];autosize=1;strokeColor=none;fillColor=none;fontSize=20;fontFamily=Architects Daughter;" vertex="1" parent="1">
          <mxGeometry x="230" y="708" width="120" height="40" as="geometry" />
        </mxCell>
        <mxCell id="4DX10pmx3WDytaZPGjQy-76" value="1" style="text;html=1;align=center;verticalAlign=middle;resizable=0;points=[];autosize=1;strokeColor=none;fillColor=none;fontSize=20;fontFamily=Architects Daughter;strokeWidth=2;" vertex="1" parent="1">
          <mxGeometry x="280" y="538" width="30" height="40" as="geometry" />
        </mxCell>
        <mxCell id="4DX10pmx3WDytaZPGjQy-77" value="" style="rounded=1;whiteSpace=wrap;html=1;sketch=1;curveFitting=1;jiggle=2;strokeWidth=2;fillColor=none;direction=east;" vertex="1" parent="1">
          <mxGeometry x="582" y="480" width="317" height="270" as="geometry" />
        </mxCell>
        <mxCell id="4DX10pmx3WDytaZPGjQy-78" value="" style="rounded=1;whiteSpace=wrap;html=1;sketch=1;hachureGap=4;jiggle=2;curveFitting=1;fontFamily=Architects Daughter;fontSource=https%3A%2F%2Ffonts.googleapis.com%2Fcss%3Ffamily%3DArchitects%2BDaughter;fontSize=20;fillColor=#cdeb8b;strokeColor=#36393d;direction=east;" vertex="1" parent="1">
          <mxGeometry x="602" y="650" width="278.5" height="90" as="geometry" />
        </mxCell>
        <mxCell id="4DX10pmx3WDytaZPGjQy-79" value="" style="rounded=1;whiteSpace=wrap;html=1;sketch=1;hachureGap=4;jiggle=2;curveFitting=1;fontFamily=Architects Daughter;fontSource=https%3A%2F%2Ffonts.googleapis.com%2Fcss%3Ffamily%3DArchitects%2BDaughter;fontSize=20;fillColor=none;direction=east;" vertex="1" parent="1">
          <mxGeometry x="602" y="486" width="280" height="144" as="geometry" />
        </mxCell>
        <mxCell id="4DX10pmx3WDytaZPGjQy-80" style="edgeStyle=orthogonalEdgeStyle;rounded=0;orthogonalLoop=1;jettySize=auto;html=1;exitX=0.75;exitY=0;exitDx=0;exitDy=0;entryX=0.75;entryY=1;entryDx=0;entryDy=0;fillColor=#e51400;strokeColor=#B20000;sketch=1;curveFitting=1;jiggle=2;strokeWidth=2;" edge="1" parent="1" source="4DX10pmx3WDytaZPGjQy-82" target="4DX10pmx3WDytaZPGjQy-85">
          <mxGeometry relative="1" as="geometry" />
        </mxCell>
        <mxCell id="4DX10pmx3WDytaZPGjQy-81" style="edgeStyle=orthogonalEdgeStyle;rounded=0;sketch=1;hachureGap=4;jiggle=2;curveFitting=1;orthogonalLoop=1;jettySize=auto;html=1;exitX=0.25;exitY=1;exitDx=0;exitDy=0;entryX=0.25;entryY=0;entryDx=0;entryDy=0;fontFamily=Architects Daughter;fontSource=https%3A%2F%2Ffonts.googleapis.com%2Fcss%3Ffamily%3DArchitects%2BDaughter;fontSize=16;fillColor=#e51400;strokeColor=#B20000;strokeWidth=2;" edge="1" parent="1" source="4DX10pmx3WDytaZPGjQy-82" target="4DX10pmx3WDytaZPGjQy-89">
          <mxGeometry relative="1" as="geometry" />
        </mxCell>
        <mxCell id="4DX10pmx3WDytaZPGjQy-82" value="&lt;font style=&quot;font-size: 14px;&quot;&gt;&lt;b&gt;rpc-server-api.jar&lt;/b&gt;&lt;/font&gt;" style="rounded=1;whiteSpace=wrap;html=1;fillColor=#d5e8d4;strokeColor=#82b366;sketch=1;curveFitting=1;jiggle=2;strokeWidth=2;fontFamily=Comic Sans MS;direction=east;" vertex="1" parent="1">
          <mxGeometry x="611" y="580" width="151" height="40" as="geometry" />
        </mxCell>
        <mxCell id="4DX10pmx3WDytaZPGjQy-83" value="&lt;font style=&quot;font-size: 14px;&quot;&gt;&lt;b&gt;guava.jar&lt;/b&gt;&lt;/font&gt;" style="ellipse;whiteSpace=wrap;html=1;fillColor=#ffe6cc;strokeColor=#d79b00;sketch=1;curveFitting=1;jiggle=2;strokeWidth=2;fontFamily=Comic Sans MS;direction=east;" vertex="1" parent="1">
          <mxGeometry x="790" y="538" width="80" height="40" as="geometry" />
        </mxCell>
        <mxCell id="4DX10pmx3WDytaZPGjQy-84" style="edgeStyle=orthogonalEdgeStyle;rounded=0;orthogonalLoop=1;jettySize=auto;html=1;exitX=0.25;exitY=1;exitDx=0;exitDy=0;entryX=0.25;entryY=0;entryDx=0;entryDy=0;fillColor=#e51400;strokeColor=#B20000;sketch=1;curveFitting=1;jiggle=2;strokeWidth=2;" edge="1" parent="1" source="4DX10pmx3WDytaZPGjQy-85" target="4DX10pmx3WDytaZPGjQy-82">
          <mxGeometry relative="1" as="geometry" />
        </mxCell>
        <mxCell id="4DX10pmx3WDytaZPGjQy-85" value="&lt;font face=&quot;Comic Sans MS&quot; style=&quot;font-size: 14px;&quot;&gt;&lt;b&gt;server&lt;/b&gt;&lt;/font&gt;" style="rounded=1;whiteSpace=wrap;html=1;fillColor=#dae8fc;strokeColor=#6c8ebf;sketch=1;curveFitting=1;jiggle=2;strokeWidth=2;direction=east;" vertex="1" parent="1">
          <mxGeometry x="611" y="500" width="151" height="40" as="geometry" />
        </mxCell>
        <mxCell id="4DX10pmx3WDytaZPGjQy-86" value="&lt;font face=&quot;Comic Sans MS&quot;&gt;&lt;span style=&quot;font-size: 18px;&quot;&gt;服务方&lt;/span&gt;&lt;/font&gt;" style="text;html=1;align=center;verticalAlign=middle;resizable=0;points=[];autosize=1;strokeColor=none;fillColor=none;sketch=1;curveFitting=1;jiggle=2;" vertex="1" parent="1">
          <mxGeometry x="700.5" y="760" width="80" height="40" as="geometry" />
        </mxCell>
        <mxCell id="4DX10pmx3WDytaZPGjQy-94" style="edgeStyle=orthogonalEdgeStyle;rounded=0;sketch=1;hachureGap=4;jiggle=2;curveFitting=1;orthogonalLoop=1;jettySize=auto;html=1;exitX=1;exitY=0.5;exitDx=0;exitDy=0;entryX=0;entryY=0.5;entryDx=0;entryDy=0;fontFamily=Architects Daughter;fontSource=https%3A%2F%2Ffonts.googleapis.com%2Fcss%3Ffamily%3DArchitects%2BDaughter;fontSize=16;dashed=1;strokeWidth=2;" edge="1" parent="1" source="4DX10pmx3WDytaZPGjQy-89" target="4DX10pmx3WDytaZPGjQy-90">
          <mxGeometry relative="1" as="geometry" />
        </mxCell>
        <mxCell id="4DX10pmx3WDytaZPGjQy-96" style="edgeStyle=orthogonalEdgeStyle;rounded=0;sketch=1;hachureGap=4;jiggle=2;curveFitting=1;orthogonalLoop=1;jettySize=auto;html=1;exitX=0.75;exitY=0;exitDx=0;exitDy=0;entryX=0.75;entryY=1;entryDx=0;entryDy=0;fontFamily=Architects Daughter;fontSource=https%3A%2F%2Ffonts.googleapis.com%2Fcss%3Ffamily%3DArchitects%2BDaughter;fontSize=16;fillColor=#e51400;strokeColor=#B20000;strokeWidth=2;" edge="1" parent="1" source="4DX10pmx3WDytaZPGjQy-89" target="4DX10pmx3WDytaZPGjQy-82">
          <mxGeometry relative="1" as="geometry" />
        </mxCell>
        <mxCell id="4DX10pmx3WDytaZPGjQy-98" style="edgeStyle=orthogonalEdgeStyle;rounded=0;sketch=1;hachureGap=4;jiggle=2;curveFitting=1;orthogonalLoop=1;jettySize=auto;html=1;exitX=0;exitY=0.25;exitDx=0;exitDy=0;entryX=1;entryY=0.25;entryDx=0;entryDy=0;fontFamily=Architects Daughter;fontSource=https%3A%2F%2Ffonts.googleapis.com%2Fcss%3Ffamily%3DArchitects%2BDaughter;fontSize=16;strokeWidth=2;fillColor=#e51400;strokeColor=#B20000;" edge="1" parent="1" source="4DX10pmx3WDytaZPGjQy-89" target="4DX10pmx3WDytaZPGjQy-56">
          <mxGeometry relative="1" as="geometry" />
        </mxCell>
        <mxCell id="4DX10pmx3WDytaZPGjQy-89" value="&lt;font style=&quot;font-size: 14px;&quot;&gt;&lt;b&gt;rpc-server-agent.jar&lt;/b&gt;&lt;/font&gt;" style="rounded=1;whiteSpace=wrap;html=1;fillColor=#d5e8d4;strokeColor=#82b366;sketch=1;curveFitting=1;jiggle=2;strokeWidth=2;fontFamily=Comic Sans MS;direction=east;" vertex="1" parent="1">
          <mxGeometry x="611" y="670" width="151" height="40" as="geometry" />
        </mxCell>
        <mxCell id="4DX10pmx3WDytaZPGjQy-90" value="&lt;font style=&quot;font-size: 14px;&quot;&gt;&lt;b&gt;guava.jar&lt;/b&gt;&lt;/font&gt;" style="ellipse;whiteSpace=wrap;html=1;fillColor=#ffe6cc;strokeColor=#d79b00;sketch=1;curveFitting=1;jiggle=2;strokeWidth=2;fontFamily=Comic Sans MS;direction=east;" vertex="1" parent="1">
          <mxGeometry x="790" y="670" width="80" height="40" as="geometry" />
        </mxCell>
        <mxCell id="4DX10pmx3WDytaZPGjQy-92" value="Java Agent" style="text;html=1;align=center;verticalAlign=middle;resizable=0;points=[];autosize=1;strokeColor=none;fillColor=none;fontSize=20;fontFamily=Architects Daughter;" vertex="1" parent="1">
          <mxGeometry x="682" y="708" width="120" height="40" as="geometry" />
        </mxCell>
        <mxCell id="4DX10pmx3WDytaZPGjQy-102" value="10" style="text;html=1;align=center;verticalAlign=middle;resizable=0;points=[];autosize=1;strokeColor=none;fillColor=none;fontSize=20;fontFamily=Architects Daughter;" vertex="1" parent="1">
          <mxGeometry x="381" y="538" width="40" height="40" as="geometry" />
        </mxCell>
        <mxCell id="4DX10pmx3WDytaZPGjQy-103" value="9" style="text;html=1;align=center;verticalAlign=middle;resizable=0;points=[];autosize=1;strokeColor=none;fillColor=none;fontSize=20;fontFamily=Architects Daughter;" vertex="1" parent="1">
          <mxGeometry x="381" y="619" width="30" height="40" as="geometry" />
        </mxCell>
        <mxCell id="4DX10pmx3WDytaZPGjQy-104" value="8" style="text;html=1;align=center;verticalAlign=middle;resizable=0;points=[];autosize=1;strokeColor=none;fillColor=none;fontSize=20;fontFamily=Architects Daughter;" vertex="1" parent="1">
          <mxGeometry x="493.5" y="640" width="40" height="40" as="geometry" />
        </mxCell>
        <mxCell id="4DX10pmx3WDytaZPGjQy-105" value="7" style="text;html=1;align=center;verticalAlign=middle;resizable=0;points=[];autosize=1;strokeColor=none;fillColor=none;fontSize=20;fontFamily=Architects Daughter;" vertex="1" parent="1">
          <mxGeometry x="615" y="619" width="40" height="40" as="geometry" />
        </mxCell>
        <mxCell id="4DX10pmx3WDytaZPGjQy-106" value="6" style="text;html=1;align=center;verticalAlign=middle;resizable=0;points=[];autosize=1;strokeColor=none;fillColor=none;fontSize=20;fontFamily=Architects Daughter;" vertex="1" parent="1">
          <mxGeometry x="615" y="538" width="40" height="40" as="geometry" />
        </mxCell>
        <mxCell id="4DX10pmx3WDytaZPGjQy-107" value="5" style="text;html=1;align=center;verticalAlign=middle;resizable=0;points=[];autosize=1;strokeColor=none;fillColor=none;fontSize=20;fontFamily=Architects Daughter;" vertex="1" parent="1">
          <mxGeometry x="718" y="540" width="40" height="40" as="geometry" />
        </mxCell>
        <mxCell id="4DX10pmx3WDytaZPGjQy-108" value="4" style="text;html=1;align=center;verticalAlign=middle;resizable=0;points=[];autosize=1;strokeColor=none;fillColor=none;fontSize=20;fontFamily=Architects Daughter;" vertex="1" parent="1">
          <mxGeometry x="718" y="619" width="40" height="40" as="geometry" />
        </mxCell>
        <mxCell id="4DX10pmx3WDytaZPGjQy-109" value="3" style="text;html=1;align=center;verticalAlign=middle;resizable=0;points=[];autosize=1;strokeColor=none;fillColor=none;fontSize=20;fontFamily=Architects Daughter;" vertex="1" parent="1">
          <mxGeometry x="498.5" y="690" width="30" height="40" as="geometry" />
        </mxCell>
        <mxCell id="4DX10pmx3WDytaZPGjQy-113" value="" style="endArrow=classic;html=1;rounded=0;exitX=1;exitY=0.5;exitDx=0;exitDy=0;entryX=0;entryY=0.5;entryDx=0;entryDy=0;dashed=1;sketch=1;curveFitting=1;jiggle=2;strokeWidth=2;" edge="1" parent="1" source="4DX10pmx3WDytaZPGjQy-85" target="4DX10pmx3WDytaZPGjQy-83">
          <mxGeometry width="50" height="50" relative="1" as="geometry">
            <mxPoint x="280" y="530" as="sourcePoint" />
            <mxPoint x="238" y="561" as="targetPoint" />
          </mxGeometry>
        </mxCell>
      </root>
    </mxGraphModel>
  </diagram>
</mxfile>
